<svg width="81" height="81" viewBox="0 0 81 81" fill="none" xmlns="http://www.w3.org/2000/svg">
<path d="M44.7447 40.04L59.0924 25.7257C59.7207 25.0974 60.0736 24.2452 60.0736 23.3567C60.0736 22.4681 59.7207 21.616 59.0924 20.9876C58.464 20.3593 57.6119 20.0064 56.7233 20.0064C55.8348 20.0064 54.9826 20.3593 54.3543 20.9876L40.04 35.3353L25.7257 20.9876C25.0974 20.3593 24.2452 20.0064 23.3567 20.0064C22.4681 20.0064 21.6159 20.3593 20.9876 20.9876C20.3593 21.616 20.0063 22.4681 20.0063 23.3567C20.0063 24.2452 20.3593 25.0974 20.9876 25.7257L35.3353 40.04L20.9876 54.3543C20.6749 54.6645 20.4267 55.0335 20.2573 55.4401C20.0879 55.8467 20.0006 56.2829 20.0006 56.7233C20.0006 57.1638 20.0879 57.5999 20.2573 58.0066C20.4267 58.4132 20.6749 58.7822 20.9876 59.0924C21.2978 59.4051 21.6668 59.6534 22.0735 59.8227C22.4801 59.9921 22.9162 60.0794 23.3567 60.0794C23.7971 60.0794 24.2333 59.9921 24.6399 59.8227C25.0465 59.6534 25.4155 59.4051 25.7257 59.0924L40.04 44.7447L54.3543 59.0924C54.6645 59.4051 55.0335 59.6534 55.4401 59.8227C55.8467 59.9921 56.2828 60.0794 56.7233 60.0794C57.1638 60.0794 57.5999 59.9921 58.0065 59.8227C58.4131 59.6534 58.7822 59.4051 59.0924 59.0924C59.4051 58.7822 59.6533 58.4132 59.8227 58.0066C59.9921 57.5999 60.0793 57.1638 60.0793 56.7233C60.0793 56.2829 59.9921 55.8467 59.8227 55.4401C59.6533 55.0335 59.4051 54.6645 59.0924 54.3543L44.7447 40.04Z" fill="#F7EFF1"/>
</svg>
