<svg width="68" height="51" viewBox="0 0 68 51" fill="none" xmlns="http://www.w3.org/2000/svg">
<path d="M65.8091 16.6128C66.3201 16.2066 67.08 16.5866 67.08 17.2286V44.0213C67.08 47.4932 64.2632 50.31 60.7913 50.31H6.28875C2.81684 50.31 0 47.4932 0 44.0213V17.2417C0 16.5866 0.746789 16.2197 1.27085 16.6259C4.2056 18.9056 8.09677 21.801 21.4604 31.5093C24.2248 33.5269 28.8889 37.7718 33.54 37.7456C38.2173 37.7849 42.9731 33.4483 45.6327 31.5093C58.9963 21.801 62.8744 18.8925 65.8091 16.6128ZM33.54 33.54C36.5796 33.5924 40.9555 29.7143 43.1565 28.116C60.5423 15.4991 61.8656 14.3986 65.8747 11.2542C66.6345 10.6647 67.08 9.74756 67.08 8.77805V6.28875C67.08 2.81684 64.2632 0 60.7913 0H6.28875C2.81684 0 0 2.81684 0 6.28875V8.77805C0 9.74756 0.445453 10.6516 1.20534 11.2542C5.21442 14.3855 6.53768 15.4991 23.9235 28.116C26.1245 29.7143 30.5004 33.5924 33.54 33.54Z" fill="#cde7d7"/>
</svg>
