<svg width="176" height="176" viewBox="0 0 176 176" fill="none" xmlns="http://www.w3.org/2000/svg">
<path fill-rule="evenodd" clip-rule="evenodd" d="M110.127 156.021C120.698 152.568 130.41 146.644 138.432 138.648C151.885 125.155 159.47 106.872 159.47 87.8274C159.47 68.783 151.885 50.5001 138.432 37.0063C124.938 23.5535 106.652 15.9686 87.611 15.9686C83.2027 15.9686 79.6267 12.3927 79.6267 7.98431C79.6267 3.57595 83.2027 0 87.611 0C110.885 0 133.24 9.2609 149.727 25.711C166.177 42.1985 175.438 64.5538 175.438 87.8274C175.438 111.101 166.177 133.456 149.727 149.944C133.24 166.394 110.885 175.655 87.611 175.655C65.4535 175.655 44.0949 167.271 27.85 152.221C11.6015 137.129 1.66121 116.45 0.0225451 94.3746C-0.305935 89.9662 2.9938 86.129 7.38722 85.8117C11.7844 85.4907 15.6216 88.7904 15.9501 93.1764C17.3088 111.261 25.4126 128.189 38.7085 140.522C48.3166 149.444 60.1195 155.479 72.7772 158.107C72.7734 152.616 72.766 147.846 72.7585 146.465C53.1057 150.862 49.7649 136.704 49.7649 136.704C46.551 128.294 41.9187 126.051 41.9187 126.051C35.5059 121.538 42.4002 121.627 42.4002 121.627C49.4924 122.139 53.2289 129.134 53.2289 129.134C59.5297 140.257 68.8727 137.051 72.8966 135.188C73.5386 130.485 74.7667 127.264 76.7824 125.446C61.0937 123.609 46.6593 117.361 46.6593 89.466C46.6593 81.5228 47.3535 75.0204 51.8701 69.9364C51.1423 68.0962 48.7085 60.6942 52.557 50.6755C59.3132 50.3582 65.2818 57.7528 71.2953 60.5822C77.7566 58.7009 85.3751 57.9133 91.2318 57.9655C97.1556 58.0178 105.039 58.9323 110.489 60.5822C115.035 57.3907 121.989 50.2575 129.377 50.515L130.515 50.6755C134.371 60.6942 131.937 68.0962 131.213 69.9364C135.741 75.0204 136.245 81.5228 136.245 89.466C136.245 117.435 120.843 123.594 105.106 125.394C107.641 127.644 110.153 132.086 110.153 138.876C110.153 141.87 110.138 148.6 110.127 156.021ZM54.1956 24.1918C58.0963 22.1425 59.6006 17.3124 57.5514 13.4117C55.5021 9.51472 50.6719 8.01043 46.7712 10.0597C30.1643 18.8018 16.7489 32.6539 8.56676 49.5408C6.62574 53.5087 8.27187 58.294 12.2398 60.2201C16.2039 62.1499 21.0005 60.4963 22.9378 56.5284C29.6455 42.6763 40.5824 31.3773 54.1956 24.1918Z" fill="url(#paint0_linear_32_70)"/>
<defs>
<linearGradient id="paint0_linear_32_70" x1="117.861" y1="3.61322" x2="73.9602" y2="168.631" gradientUnits="userSpaceOnUse">
<stop stop-color="#1A6CFF"/>
<stop offset="1" stop-color="#C522FF"/>
</linearGradient>
</defs>
</svg>
