<svg width="68" height="68" viewBox="0 0 68 68" fill="none" xmlns="http://www.w3.org/2000/svg">
<path d="M57.018 0H10.062C4.50491 0 0 4.50491 0 10.062V57.018C0 62.5751 4.50491 67.08 10.062 67.08H57.018C62.5751 67.08 67.08 62.5751 67.08 57.018V10.062C67.08 4.50491 62.5751 0 57.018 0Z" fill="black"/>
<path d="M57.018 0H10.062C4.50491 0 0 4.50491 0 10.062V57.018C0 62.5751 4.50491 67.08 10.062 67.08H57.018C62.5751 67.08 67.08 62.5751 67.08 57.018V10.062C67.08 4.50491 62.5751 0 57.018 0Z" fill="url(#paint0_radial_27_27)"/>
<path d="M57.018 0H10.062C4.50491 0 0 4.50491 0 10.062V57.018C0 62.5751 4.50491 67.08 10.062 67.08H57.018C62.5751 67.08 67.08 62.5751 67.08 57.018V10.062C67.08 4.50491 62.5751 0 57.018 0Z" fill="url(#paint1_linear_27_27)"/>
<path d="M43.1041 13.3636H23.9759C18.1149 13.3636 13.3636 18.1149 13.3636 23.9759V43.1041C13.3636 48.9651 18.1149 53.7164 23.9759 53.7164H43.1041C48.9651 53.7164 53.7164 48.9651 53.7164 43.1041V23.9759C53.7164 18.1149 48.9651 13.3636 43.1041 13.3636Z" stroke="white" stroke-width="3.93047"/>
<path d="M33.54 42.9731C38.7498 42.9731 42.9731 38.7498 42.9731 33.54C42.9731 28.3302 38.7498 24.1069 33.54 24.1069C28.3302 24.1069 24.1069 28.3302 24.1069 33.54C24.1069 38.7498 28.3302 42.9731 33.54 42.9731Z" stroke="white" stroke-width="3.93047"/>
<path d="M45.4624 22.4037C45.8966 22.4037 46.2485 22.0517 46.2485 21.6176C46.2485 21.1834 45.8966 20.8315 45.4624 20.8315C45.0283 20.8315 44.6763 21.1834 44.6763 21.6176C44.6763 22.0517 45.0283 22.4037 45.4624 22.4037Z" stroke="white" stroke-width="3.93047"/>
<defs>
<radialGradient id="paint0_radial_27_27" cx="0" cy="0" r="1" gradientUnits="userSpaceOnUse" gradientTransform="translate(26.832 67.08) scale(67.08)">
<stop offset="0.1" stop-color="#FFDD55"/>
<stop offset="0.5" stop-color="#FF543E"/>
<stop offset="1" stop-color="#C837AB"/>
</radialGradient>
<linearGradient id="paint1_linear_27_27" x1="0" y1="0" x2="13.416" y2="67.08" gradientUnits="userSpaceOnUse">
<stop offset="0.1" stop-color="#3771C8"/>
<stop offset="0.5" stop-color="#6600FF" stop-opacity="0"/>
</linearGradient>
</defs>
</svg>
