<svg width="176" height="176" viewBox="0 0 176 176" fill="none" xmlns="http://www.w3.org/2000/svg">
<path fill-rule="evenodd" clip-rule="evenodd" d="M175.438 175.117H139.085V118.236C139.085 104.67 138.856 87.2213 120.196 87.2213C101.285 87.2213 98.3968 102.005 98.3968 117.263V175.117H62.0821V58.145H96.9338V74.1385H97.4317C102.28 64.9392 114.138 55.2419 131.824 55.2419C168.637 55.2419 175.438 79.462 175.438 110.966V175.117ZM21.0949 42.1668C9.4138 42.1668 0 32.7224 0 21.0796C0 9.44444 9.4138 0 21.0949 0C32.7224 0 42.1668 9.44444 42.1668 21.0796C42.1668 32.7224 32.7224 42.1668 21.0949 42.1668ZM39.2791 175.117H2.88772V58.145H39.2791V175.117Z" fill="#0077B5"/>
</svg>
