<svg width="68" height="90" viewBox="0 0 68 90" fill="none" xmlns="http://www.w3.org/2000/svg">
<path d="M30.0931 87.6355C4.71132 50.8395 0 47.0631 0 33.54C0 15.0163 15.0163 0 33.54 0C52.0637 0 67.08 15.0163 67.08 33.54C67.08 47.0631 62.3687 50.8395 36.9869 87.6355C35.3213 90.0416 31.7585 90.0414 30.0931 87.6355ZM33.54 47.515C41.2582 47.515 47.515 41.2582 47.515 33.54C47.515 25.8218 41.2582 19.565 33.54 19.565C25.8218 19.565 19.565 25.8218 19.565 33.54C19.565 41.2582 25.8218 47.515 33.54 47.515Z" fill="#cde7d7"/>
</svg>
