<svg width="68" height="68" viewBox="0 0 68 68" fill="none" xmlns="http://www.w3.org/2000/svg">
<path d="M56.0398 30.745H11.0403C9.57381 30.745 8.38501 31.9338 8.38501 33.4002V33.6797C8.38501 35.1462 9.57381 36.335 11.0403 36.335H56.0398C57.5062 36.335 58.695 35.1462 58.695 33.6797V33.4002C58.695 31.9338 57.5062 30.745 56.0398 30.745Z" fill="#F6FFF1"/>
<path d="M56.0398 44.72H11.0403C9.57381 44.72 8.38501 45.9088 8.38501 47.3752V47.6547C8.38501 49.1212 9.57381 50.31 11.0403 50.31H56.0398C57.5062 50.31 58.695 49.1212 58.695 47.6547V47.3752C58.695 45.9088 57.5062 44.72 56.0398 44.72Z" fill="#F6FFF1"/>
<path d="M56.0398 16.77H11.0403C9.57381 16.77 8.38501 17.9588 8.38501 19.4252V19.7047C8.38501 21.1712 9.57381 22.36 11.0403 22.36H56.0398C57.5062 22.36 58.695 21.1712 58.695 19.7047V19.4252C58.695 17.9588 57.5062 16.77 56.0398 16.77Z" fill="#F6FFF1"/>
</svg>
